<svg width="25" height="15" viewBox="0 0 25 15" fill="none" xmlns="http://www.w3.org/2000/svg">
<path d="M18.0625 1.5625L19.8625 3.3625L13.7625 9.4625L9.64999 5.35C9.53434 5.23412 9.39698 5.14219 9.24577 5.07946C9.09455 5.01674 8.93245 4.98445 8.76874 4.98445C8.60503 4.98445 8.44292 5.01674 8.29171 5.07946C8.14049 5.14219 8.00313 5.23412 7.88749 5.35L0.387487 12.8625C0.271759 12.9782 0.179959 13.1156 0.117328 13.2668C0.0546968 13.418 0.0224609 13.5801 0.0224609 13.7438C0.0224609 13.9074 0.0546968 14.0695 0.117328 14.2207C0.179959 14.3719 0.271759 14.5093 0.387487 14.625C0.503214 14.7407 0.640602 14.8325 0.791808 14.8952C0.943013 14.9578 1.10507 14.99 1.26874 14.99C1.4324 14.99 1.59446 14.9578 1.74567 14.8952C1.89687 14.8325 2.03426 14.7407 2.14999 14.625L8.76249 8L12.875 12.1125C13.3625 12.6 14.15 12.6 14.6375 12.1125L21.625 5.1375L23.425 6.9375C23.5123 7.02315 23.6229 7.08128 23.743 7.10468C23.8631 7.12809 23.9874 7.11573 24.1005 7.06915C24.2136 7.02257 24.3106 6.94381 24.3794 6.84264C24.4482 6.74147 24.4858 6.62233 24.4875 6.5V1.125C24.4909 1.04307 24.4775 0.9613 24.4481 0.884746C24.4187 0.808191 24.3739 0.738475 24.3165 0.679905C24.2591 0.621335 24.1903 0.575153 24.1144 0.544211C24.0385 0.513269 23.957 0.498224 23.875 0.500004H18.5125C18.3891 0.499279 18.2682 0.535096 18.1652 0.602941C18.0621 0.670786 17.9814 0.767623 17.9333 0.881247C17.8852 0.994872 17.8718 1.1202 17.8948 1.24143C17.9177 1.36267 17.9761 1.47438 18.0625 1.5625Z" fill="#072D4B"/>
</svg>
