<svg width="24" height="24" viewBox="0 0 24 24" fill="none" xmlns="http://www.w3.org/2000/svg">
<path d="M5.75 18.25H14.5V15.75H5.75V18.25ZM5.75 13.25H18.25V10.75H5.75V13.25ZM5.75 8.25H18.25V5.75H5.75V8.25ZM3.25 23.25C2.5625 23.25 1.97375 23.005 1.48375 22.515C0.993752 22.025 0.749169 21.4367 0.750002 20.75V3.25C0.750002 2.5625 0.995002 1.97375 1.485 1.48375C1.975 0.993752 2.56334 0.749169 3.25 0.750002H20.75C21.4375 0.750002 22.0263 0.995002 22.5163 1.485C23.0063 1.975 23.2508 2.56334 23.25 3.25V20.75C23.25 21.4375 23.005 22.0263 22.515 22.5163C22.025 23.0063 21.4367 23.2508 20.75 23.25H3.25ZM3.25 20.75H20.75V3.25H3.25V20.75Z" fill="#072D4B"/>
</svg>
