<svg width="19" height="28" viewBox="0 0 19 28" fill="none" xmlns="http://www.w3.org/2000/svg">
<path d="M11.5833 1.5H3.24996C2.69742 1.5 2.16752 1.76339 1.77682 2.23223C1.38612 2.70107 1.16663 3.33696 1.16663 4V24C1.16663 24.663 1.38612 25.2989 1.77682 25.7678C2.16752 26.2366 2.69742 26.5 3.24996 26.5H15.75C16.3025 26.5 16.8324 26.2366 17.2231 25.7678C17.6138 25.2989 17.8333 24.663 17.8333 24V9L11.5833 1.5Z" stroke="#072D4B" stroke-width="2" stroke-linecap="round" stroke-linejoin="round"/>
<path d="M11.5834 1.5V9H17.8334" stroke="#072D4B" stroke-width="2" stroke-linecap="round" stroke-linejoin="round"/>
<path d="M13.6667 15.25H5.33337" stroke="#072D4B" stroke-width="2" stroke-linecap="round" stroke-linejoin="round"/>
<path d="M13.6667 20.25H5.33337" stroke="#072D4B" stroke-width="2" stroke-linecap="round" stroke-linejoin="round"/>
<path d="M7.41671 10.25H6.37504H5.33337" stroke="#072D4B" stroke-width="2" stroke-linecap="round" stroke-linejoin="round"/>
</svg>
