<svg width="18" height="16" viewBox="0 0 18 16" fill="none" xmlns="http://www.w3.org/2000/svg">
<path d="M0.000486792 0.242617C0.0818122 1.48655 0.546969 3.73635 2.75723 4.87149L5.1092 2.07831C5.1092 2.07831 1.72557 1.90358 0.38555 0.0873683C0.357146 0.0490431 0.317834 0.0213319 0.273388 0.00830556C0.228941 -0.00472075 0.181704 -0.00237551 0.138616 0.0149968C0.0955273 0.032369 0.0588586 0.0638526 0.0339965 0.104822C0.00913431 0.145792 -0.0026107 0.194089 0.000486792 0.242617V0.242617Z" fill="url(#paint0_linear_1_1100)"/>
<path d="M17.9996 0.242569C17.9189 1.4865 17.4537 3.73631 15.2434 4.87144L12.8915 2.07827C12.8915 2.07827 16.276 1.90353 17.6151 0.0873208C17.6436 0.0492847 17.6829 0.0218401 17.7272 0.00899104C17.7715 -0.00385801 17.8186 -0.00143917 17.8615 0.0158947C17.9044 0.0332286 17.941 0.0645704 17.9658 0.105348C17.9906 0.146125 18.0025 0.194203 17.9996 0.242569V0.242569Z" fill="url(#paint1_linear_1_1100)"/>
<path d="M9.00061 15.9971C13.1039 15.9971 16.4302 12.4901 16.4302 8.16391C16.4302 3.83774 13.1039 0.330688 9.00061 0.330688C4.89738 0.330688 1.57104 3.83774 1.57104 8.16391C1.57104 12.4901 4.89738 15.9971 9.00061 15.9971Z" fill="url(#paint2_linear_1_1100)"/>
<g style="mix-blend-mode:soft-light">
<path d="M9.00061 16.0001C13.1038 16.0001 16.4302 12.493 16.4302 8.16684C16.4302 3.84067 13.1038 0.333618 9.00061 0.333618C4.89738 0.333618 1.57104 3.84067 1.57104 8.16684C1.57104 12.493 4.89738 16.0001 9.00061 16.0001Z" fill="url(#paint3_radial_1_1100)"/>
</g>
<g style="mix-blend-mode:soft-light">
<path d="M9.00061 15.9971C13.1039 15.9971 16.4302 12.4901 16.4302 8.16391C16.4302 3.83774 13.1039 0.330688 9.00061 0.330688C4.89738 0.330688 1.57104 3.83774 1.57104 8.16391C1.57104 12.4901 4.89738 15.9971 9.00061 15.9971Z" fill="url(#paint4_linear_1_1100)"/>
</g>
<g style="mix-blend-mode:overlay">
<path d="M9.00061 16.0001C13.1038 16.0001 16.4302 12.493 16.4302 8.16684C16.4302 3.84067 13.1038 0.333618 9.00061 0.333618C4.89738 0.333618 1.57104 3.84067 1.57104 8.16684C1.57104 12.493 4.89738 16.0001 9.00061 16.0001Z" fill="url(#paint5_radial_1_1100)" fill-opacity="0.7"/>
</g>
<mask id="mask0_1_1100" style="mask-type:alpha" maskUnits="userSpaceOnUse" x="1" y="0" width="16" height="16">
<path d="M9.00061 16.0001C13.1038 16.0001 16.4302 12.493 16.4302 8.16684C16.4302 3.84067 13.1038 0.333618 9.00061 0.333618C4.89738 0.333618 1.57104 3.84067 1.57104 8.16684C1.57104 12.493 4.89738 16.0001 9.00061 16.0001Z" fill="white"/>
</mask>
<g mask="url(#mask0_1_1100)">
<g filter="url(#filter0_f_1_1100)">
<path d="M1.52866 7.94338C1.53673 7.83208 1.57147 7.82093 1.5816 7.93395C1.59286 8.05951 1.57097 8.31194 1.57624 8.4642C1.59019 8.86738 1.64881 9.21792 1.70924 9.50306C1.90397 10.4219 2.17365 11.014 2.42517 11.5157C3.25196 13.1647 4.15765 13.9997 5.04117 14.6291C6.33626 15.5515 7.64188 15.845 8.94856 15.9072C8.98152 15.9088 8.98701 16.1351 8.95458 16.1646C8.89611 16.2177 8.82368 16.165 8.76385 16.1628C8.59197 16.1564 8.42009 16.144 8.24823 16.1252C7.73861 16.0693 7.22903 15.9556 6.72047 15.7727C5.33772 15.2753 3.84682 14.4236 2.54477 12.0248C2.46286 11.8739 2.3816 11.715 2.30149 11.5442C2.23742 11.4077 2.17398 11.2646 2.11165 11.1115C1.90665 10.608 1.42894 9.31916 1.52866 7.94338ZM8.94947 16.167C8.91804 16.1681 8.91007 15.957 8.94004 15.9132C8.98534 15.847 9.05323 15.9015 9.101 15.8984C9.29934 15.8853 9.49764 15.8659 9.69588 15.8397C10.2394 15.7677 10.7826 15.6448 11.3246 15.4556C12.6688 14.9863 14.1139 14.2708 15.3811 12.0725C15.4618 11.9326 15.5417 11.7841 15.6206 11.6246C15.8603 11.1397 16.461 9.85266 16.3916 8.25265C16.3857 8.11777 16.4247 8.03698 16.4421 8.15269C16.4643 8.30001 16.4553 8.60715 16.4492 8.77059C16.4296 9.29399 16.3534 9.73663 16.273 10.0941C16.0182 11.227 15.6606 11.8838 15.333 12.4323C14.2684 14.215 13.1121 14.9336 11.9879 15.45C10.9797 15.9132 9.96371 16.134 8.94947 16.167Z" fill="#3A0044"/>
</g>
<g filter="url(#filter1_f_1_1100)">
<path d="M1.52866 7.94338C1.53673 7.83208 1.57147 7.82093 1.5816 7.93395C1.59286 8.05951 1.57097 8.31194 1.57624 8.4642C1.59019 8.86738 1.64881 9.21792 1.70924 9.50306C1.90397 10.4219 2.17365 11.014 2.42517 11.5157C3.25196 13.1647 4.15765 13.9997 5.04117 14.6291C6.33626 15.5515 7.64188 15.845 8.94856 15.9072C8.98152 15.9088 8.98701 16.1351 8.95458 16.1646C8.89611 16.2177 8.82368 16.165 8.76385 16.1628C8.59197 16.1564 8.42009 16.144 8.24823 16.1252C7.73861 16.0693 7.22903 15.9556 6.72047 15.7727C5.33772 15.2753 3.84682 14.4236 2.54477 12.0248C2.46286 11.8739 2.3816 11.715 2.30149 11.5442C2.23742 11.4077 2.17398 11.2646 2.11165 11.1115C1.90665 10.608 1.42894 9.31916 1.52866 7.94338ZM8.94947 16.167C8.91804 16.1681 8.91007 15.957 8.94004 15.9132C8.98534 15.847 9.05323 15.9015 9.101 15.8984C9.29934 15.8853 9.49764 15.8659 9.69588 15.8397C10.2394 15.7677 10.7826 15.6448 11.3246 15.4556C12.6688 14.9863 14.1139 14.2708 15.3811 12.0725C15.4618 11.9326 15.5417 11.7841 15.6206 11.6246C15.8603 11.1397 16.461 9.85266 16.3916 8.25265C16.3857 8.11777 16.4247 8.03698 16.4421 8.15269C16.4643 8.30001 16.4553 8.60715 16.4492 8.77059C16.4296 9.29399 16.3534 9.73663 16.273 10.0941C16.0182 11.227 15.6606 11.8838 15.333 12.4323C14.2684 14.215 13.1121 14.9336 11.9879 15.45C10.9797 15.9132 9.96371 16.134 8.94947 16.167Z" fill="#3A0044"/>
</g>
</g>
<path d="M11.8362 11.1594C11.908 11.1159 12.006 11.1685 11.9832 11.2376C11.6514 12.2422 10.4472 12.9866 9.01235 12.9866C7.57745 12.9866 6.37143 12.2416 6.0412 11.2373C6.0184 11.1681 6.11667 11.1155 6.18814 11.159C6.9022 11.593 7.90398 11.8632 9.01235 11.8632C10.1207 11.8632 11.1219 11.592 11.8362 11.1594Z" fill="url(#paint6_radial_1_1100)"/>
<path d="M11.8362 11.1594C11.908 11.1159 12.006 11.1685 11.9832 11.2376C11.6514 12.2422 10.4472 12.9866 9.01235 12.9866C7.57745 12.9866 6.37143 12.2416 6.0412 11.2373C6.0184 11.1681 6.11667 11.1155 6.18814 11.159C6.9022 11.593 7.90398 11.8632 9.01235 11.8632C10.1207 11.8632 11.1219 11.592 11.8362 11.1594Z" stroke="url(#paint7_linear_1_1100)" stroke-miterlimit="10"/>
<path d="M6.91757 9.62596C7.41044 9.62596 7.80999 9.08023 7.80999 8.40704C7.80999 7.73384 7.41044 7.18811 6.91757 7.18811C6.4247 7.18811 6.02515 7.73384 6.02515 8.40704C6.02515 9.08023 6.4247 9.62596 6.91757 9.62596Z" fill="url(#paint8_radial_1_1100)"/>
<path d="M6.91757 9.62596C7.41044 9.62596 7.80999 9.08023 7.80999 8.40704C7.80999 7.73384 7.41044 7.18811 6.91757 7.18811C6.4247 7.18811 6.02515 7.73384 6.02515 8.40704C6.02515 9.08023 6.4247 9.62596 6.91757 9.62596Z" stroke="url(#paint9_radial_1_1100)" stroke-miterlimit="10"/>
<path d="M8.02558 7.7916C8.00156 7.8085 7.97267 7.81598 7.94396 7.81271C7.91524 7.80945 7.88853 7.79565 7.86848 7.77373L7.85554 7.75977C7.82812 7.72989 7.80009 7.70033 7.77206 7.67077C7.74403 7.64122 7.71753 7.61426 7.68981 7.58633C7.66208 7.5584 7.63621 7.53469 7.60848 7.50676C7.58076 7.47882 7.55581 7.45641 7.52931 7.43173C7.50282 7.40705 7.47756 7.38464 7.45107 7.36125C7.42458 7.33787 7.40024 7.31676 7.37467 7.29629C7.3491 7.27583 7.32477 7.25472 7.29951 7.23426L7.22588 7.17612C7.20186 7.15826 7.17783 7.14007 7.15318 7.12253C7.12854 7.10499 7.10636 7.09005 7.08233 7.07252C7.0583 7.05498 7.03613 7.04004 7.01271 7.02607C6.9893 7.01211 6.96774 6.99749 6.94463 6.9832C6.92153 6.96891 6.90058 6.95657 6.87809 6.9439C6.85561 6.93123 6.83466 6.91954 6.8131 6.90785L6.74902 6.87537L6.68741 6.84549C6.66739 6.8364 6.64706 6.82763 6.6258 6.81886C6.60455 6.81009 6.58668 6.80262 6.56666 6.79515C6.54663 6.78768 6.52815 6.78086 6.50874 6.77404C6.48934 6.76722 6.47085 6.76104 6.45206 6.75552C6.43327 6.75 6.41571 6.74416 6.39723 6.73928C6.37874 6.73441 6.3618 6.72987 6.34363 6.72564C6.32545 6.72142 6.30913 6.71752 6.29187 6.71395C6.27462 6.71038 6.25799 6.70746 6.24135 6.70453L6.19237 6.69674C6.17636 6.69479 6.16157 6.69284 6.14493 6.69154C6.1283 6.69024 6.11413 6.68862 6.09873 6.68732L6.05437 6.68472H6.01155H5.96996H5.92991L5.89295 6.68699L5.85567 6.69089L5.81963 6.69511L5.80392 6.69771C5.61478 6.72564 5.53161 6.65289 5.49803 6.56C5.44566 6.41482 5.53869 6.2573 5.68286 6.2245C6.79985 5.96889 7.62358 6.92149 8.05855 7.61296C8.07634 7.64136 8.08285 7.67598 8.07669 7.70938C8.07052 7.74278 8.05217 7.7723 8.02558 7.7916V7.7916Z" fill="#331842"/>
<path d="M11.0814 9.62596C11.5743 9.62596 11.9738 9.08023 11.9738 8.40704C11.9738 7.73384 11.5743 7.18811 11.0814 7.18811C10.5885 7.18811 10.189 7.73384 10.189 8.40704C10.189 9.08023 10.5885 9.62596 11.0814 9.62596Z" fill="url(#paint10_radial_1_1100)"/>
<path d="M11.0814 9.62596C11.5743 9.62596 11.9738 9.08023 11.9738 8.40704C11.9738 7.73384 11.5743 7.18811 11.0814 7.18811C10.5885 7.18811 10.189 7.73384 10.189 8.40704C10.189 9.08023 10.5885 9.62596 11.0814 9.62596Z" stroke="url(#paint11_radial_1_1100)" stroke-miterlimit="10"/>
<path d="M9.97338 7.7916C9.9974 7.8085 10.0263 7.81598 10.055 7.81271C10.0837 7.80945 10.1104 7.79565 10.1305 7.77373L10.1434 7.75977C10.1708 7.72989 10.1989 7.70033 10.2269 7.67077L10.3092 7.58633C10.3357 7.55937 10.3628 7.53306 10.3902 7.50676C10.4176 7.48045 10.4429 7.45641 10.4693 7.43173C10.4958 7.40705 10.5211 7.38464 10.5476 7.36125C10.5741 7.33787 10.5984 7.31676 10.624 7.29629C10.6496 7.27583 10.6739 7.25472 10.6991 7.23426L10.7728 7.17612C10.7968 7.15826 10.8208 7.14007 10.8455 7.12253C10.8701 7.10499 10.8923 7.09005 10.9163 7.07252C10.9404 7.05498 10.9625 7.04004 10.9859 7.02607C11.0094 7.01211 11.0309 6.99749 11.054 6.9832C11.0771 6.96891 11.0981 6.95657 11.1206 6.9439C11.1431 6.93123 11.164 6.91954 11.1856 6.90785L11.2496 6.87537L11.3112 6.84549C11.3313 6.8364 11.3516 6.82763 11.3729 6.81886C11.3941 6.81009 11.412 6.80262 11.432 6.79515C11.452 6.78768 11.4705 6.78086 11.4899 6.77404C11.5093 6.76722 11.5278 6.76104 11.5466 6.75552C11.5654 6.75 11.5829 6.74416 11.6014 6.73928C11.6199 6.73441 11.6369 6.72987 11.655 6.72564C11.6732 6.72142 11.6895 6.71752 11.7068 6.71395C11.724 6.71038 11.7407 6.70746 11.7573 6.70453L11.8063 6.69674C11.8223 6.69479 11.8371 6.69284 11.8537 6.69154C11.8704 6.69024 11.8845 6.68862 11.8999 6.68732L11.9443 6.68472H11.9871H12.0287H12.0687L12.1057 6.68699L12.143 6.69089L12.179 6.69511L12.1947 6.69771C12.3839 6.72564 12.4671 6.65289 12.5006 6.56C12.553 6.41482 12.46 6.2573 12.3158 6.2245C11.1988 5.96889 10.3751 6.92149 9.94011 7.61296C9.92235 7.6414 9.91589 7.67604 9.92211 7.70945C9.92833 7.74286 9.94674 7.77235 9.97338 7.7916Z" fill="#331842"/>
<defs>
<filter id="filter0_f_1_1100" x="-23.4849" y="-17.1456" width="64.9412" height="58.3339" filterUnits="userSpaceOnUse" color-interpolation-filters="sRGB">
<feFlood flood-opacity="0" result="BackgroundImageFix"/>
<feBlend mode="normal" in="SourceGraphic" in2="BackgroundImageFix" result="shape"/>
<feGaussianBlur stdDeviation="12.5" result="effect1_foregroundBlur_1_1100"/>
</filter>
<filter id="filter1_f_1_1100" x="-38.4849" y="-32.1456" width="94.9412" height="88.3339" filterUnits="userSpaceOnUse" color-interpolation-filters="sRGB">
<feFlood flood-opacity="0" result="BackgroundImageFix"/>
<feBlend mode="normal" in="SourceGraphic" in2="BackgroundImageFix" result="shape"/>
<feGaussianBlur stdDeviation="20" result="effect1_foregroundBlur_1_1100"/>
</filter>
<linearGradient id="paint0_linear_1_1100" x1="1.20741" y1="-0.638115" x2="4.07386" y2="4.06995" gradientUnits="userSpaceOnUse">
<stop stop-color="#AF4FF7"/>
<stop offset="0.526042" stop-color="#A233FF"/>
<stop offset="1" stop-color="#43008F"/>
</linearGradient>
<linearGradient id="paint1_linear_1_1100" x1="14.0987" y1="-0.637142" x2="16.9646" y2="4.07018" gradientUnits="userSpaceOnUse">
<stop stop-color="#AF4FF7"/>
<stop offset="0.526042" stop-color="#A233FF"/>
<stop offset="1" stop-color="#43008F"/>
</linearGradient>
<linearGradient id="paint2_linear_1_1100" x1="9.0003" y1="16.0121" x2="9.0003" y2="0.324853" gradientUnits="userSpaceOnUse">
<stop stop-color="#A05AFF"/>
<stop offset="0.486542" stop-color="#A456FF"/>
<stop offset="0.768116" stop-color="#B14BFF"/>
<stop offset="1" stop-color="#C33AFF"/>
</linearGradient>
<radialGradient id="paint3_radial_1_1100" cx="0" cy="0" r="1" gradientUnits="userSpaceOnUse" gradientTransform="translate(8.99507 2.4285) rotate(90) scale(13.5599 12.8611)">
<stop stop-color="white" stop-opacity="0.5"/>
<stop offset="0.782278"/>
</radialGradient>
<linearGradient id="paint4_linear_1_1100" x1="9.0003" y1="16.0121" x2="9.0003" y2="0.324853" gradientUnits="userSpaceOnUse">
<stop stop-color="#A05AFF"/>
<stop offset="0.401042" stop-color="#A456FF"/>
<stop offset="0.768116" stop-color="#B14BFF" stop-opacity="0"/>
<stop offset="1" stop-color="#C33AFF" stop-opacity="0"/>
</linearGradient>
<radialGradient id="paint5_radial_1_1100" cx="0" cy="0" r="1" gradientUnits="userSpaceOnUse" gradientTransform="translate(8.99507 -1.37151) rotate(90) scale(17.3599 22.267)">
<stop offset="0.0922635" stop-color="white"/>
<stop offset="0.670207" stop-color="white" stop-opacity="0"/>
</radialGradient>
<radialGradient id="paint6_radial_1_1100" cx="0" cy="0" r="1" gradientUnits="userSpaceOnUse" gradientTransform="translate(9.00877 12.0529) scale(3.79158 0.923318)">
<stop stop-color="#490082"/>
<stop offset="1" stop-color="#321040"/>
</radialGradient>
<linearGradient id="paint7_linear_1_1100" x1="9.00776" y1="10.8729" x2="9.00776" y2="13.6661" gradientUnits="userSpaceOnUse">
<stop stop-color="#38036B"/>
<stop offset="1" stop-color="#B06CF4"/>
</linearGradient>
<radialGradient id="paint8_radial_1_1100" cx="0" cy="0" r="1" gradientUnits="userSpaceOnUse" gradientTransform="translate(6.91654 8.39119) scale(1.13762 1.22104)">
<stop stop-color="#490082"/>
<stop offset="1" stop-color="#321040"/>
</radialGradient>
<radialGradient id="paint9_radial_1_1100" cx="0" cy="0" r="1" gradientUnits="userSpaceOnUse" gradientTransform="translate(6.91757 8.40704) scale(1.06339 1.12117)">
<stop stop-color="#B66EFF"/>
<stop offset="0.27" stop-color="#B46AFF"/>
<stop offset="0.56" stop-color="#AF5DFF"/>
<stop offset="0.84" stop-color="#A649FF"/>
<stop offset="1" stop-color="#9F3AFF"/>
</radialGradient>
<radialGradient id="paint10_radial_1_1100" cx="0" cy="0" r="1" gradientUnits="userSpaceOnUse" gradientTransform="translate(11.0804 8.39119) scale(1.13762 1.22104)">
<stop stop-color="#490082"/>
<stop offset="1" stop-color="#321040"/>
</radialGradient>
<radialGradient id="paint11_radial_1_1100" cx="0" cy="0" r="1" gradientUnits="userSpaceOnUse" gradientTransform="translate(11.0814 8.40704) scale(1.06339 1.12117)">
<stop stop-color="#B66EFF"/>
<stop offset="0.27" stop-color="#B46AFF"/>
<stop offset="0.56" stop-color="#AF5DFF"/>
<stop offset="0.84" stop-color="#A649FF"/>
<stop offset="1" stop-color="#9F3AFF"/>
</radialGradient>
</defs>
</svg>
