<svg width="21" height="20" viewBox="0 0 21 20" fill="none" xmlns="http://www.w3.org/2000/svg">
<path d="M10.9987 18.9286C15.9298 18.9286 19.9272 14.9311 19.9272 9.99998C19.9272 5.06887 15.9298 1.07141 10.9987 1.07141C6.06756 1.07141 2.0701 5.06887 2.0701 9.99998C2.0701 14.9311 6.06756 18.9286 10.9987 18.9286Z" fill="#C5EAC8" stroke="#038A00" stroke-width="1.5" stroke-linecap="round" stroke-linejoin="round"/>
<path d="M6.46567 11.3735C7.15248 13.846 9.89973 15.357 12.3723 14.6702C13.8833 14.1207 15.1195 12.8845 15.5316 11.3735" stroke="#038A00" stroke-width="1.5" stroke-linecap="round" stroke-linejoin="round"/>
<path d="M14.6388 7.9395C14.4492 7.9395 14.2954 7.78575 14.2954 7.59609C14.2954 7.40643 14.4492 7.25269 14.6388 7.25269" stroke="#038A00" stroke-width="1.5" stroke-linecap="round" stroke-linejoin="round"/>
<path d="M14.6388 7.9395C14.8285 7.9395 14.9822 7.78575 14.9822 7.59609C14.9822 7.40643 14.8285 7.25269 14.6388 7.25269" stroke="#038A00" stroke-width="1.5" stroke-linecap="round" stroke-linejoin="round"/>
<path d="M7.35857 7.9395C7.16892 7.9395 7.01517 7.78575 7.01517 7.59609C7.01517 7.40643 7.16892 7.25269 7.35857 7.25269" stroke="#038A00" stroke-width="1.5" stroke-linecap="round" stroke-linejoin="round"/>
<path d="M7.35862 7.9395C7.54828 7.9395 7.70203 7.78575 7.70203 7.59609C7.70203 7.40643 7.54828 7.25269 7.35862 7.25269" stroke="#038A00" stroke-width="1.5" stroke-linecap="round" stroke-linejoin="round"/>
</svg>
