<svg width="145" height="108" viewBox="0 0 145 108" fill="none" xmlns="http://www.w3.org/2000/svg">
<path d="M145 50.7056C145 55.0023 143.46 59.1409 140.687 62.2939C137.914 65.4469 134.112 67.382 130.043 67.7124C129.905 67.7233 129.766 67.7342 129.627 67.7408V51.5518C129.627 51.39 129.593 51.2303 129.527 51.0842C129.461 50.9382 129.364 50.8095 129.245 50.7077C129.231 50.6928 129.216 50.6796 129.199 50.6684C129.184 50.6555 129.168 50.6438 129.151 50.6334C129.005 50.5345 128.838 50.4757 128.665 50.4623C128.492 50.449 128.318 50.4815 128.16 50.5569L127.988 50.1589C128.176 50.0685 128.381 50.0215 128.588 50.0211L116.755 39.2904C116.847 39.1811 116.942 39.0739 117.038 38.9668C119.269 36.4914 122.153 34.7771 125.319 34.0453C128.485 33.3136 131.787 33.5981 134.798 34.862C137.809 36.126 140.39 38.3113 142.209 41.1356C144.027 43.96 145 47.2935 145 50.7056Z" fill="#F2F2F2"/>
<path d="M21.6591 94.3411L15.9869 88.3958L18.169 86.0889L21.6497 89.7371C21.9374 90.0388 22.166 90.3971 22.3222 90.7918C22.4784 91.1864 22.5593 91.6095 22.5602 92.037C22.561 92.4646 22.4819 92.8881 22.3273 93.2834C22.1727 93.6787 21.9456 94.0381 21.6591 94.3411L21.6591 94.3411Z" fill="#2F2E41"/>
<path d="M15.9075 107.67L7.90297 107.671L7.90283 104.415L12.8147 104.415C13.2208 104.415 13.623 104.499 13.9982 104.663C14.3734 104.826 14.7144 105.066 15.0016 105.368C15.2887 105.671 15.5166 106.03 15.672 106.425C15.8274 106.82 15.9075 107.243 15.9075 107.67Z" fill="#2F2E41"/>
<path d="M7.89504 97.1944L4.99402 74.6731C4.54 71.2696 4.6809 67.8073 5.40976 64.4571C6.00507 61.7648 6.80931 59.8998 7.80021 58.9143C7.95658 58.7598 8.15677 58.6636 8.37007 58.6404L17.9484 57.5901C18.1329 57.5702 18.3189 57.606 18.4848 57.6933C18.6507 57.7805 18.7896 57.9157 18.8853 58.0829L19.2002 58.6352C19.2384 58.7023 19.2692 58.7737 19.2921 58.8482L21.3172 65.4567C21.3474 65.5565 21.3962 65.649 21.4607 65.7289C21.5252 65.8087 21.6041 65.8742 21.6929 65.9217C24.8813 67.6352 35.2384 73.4197 34.6457 75.9154C34.0888 78.2603 28.8748 82.0625 27.29 83.1718C27.1286 83.2854 26.9385 83.3453 26.7444 83.3437C26.5503 83.3422 26.3611 83.2793 26.2014 83.1631L23.5707 81.2685C23.4423 81.176 23.3367 81.0524 23.2629 80.9082C23.1891 80.764 23.1492 80.6032 23.1465 80.4394C23.1438 80.2756 23.1784 80.1135 23.2473 79.9667C23.3163 79.8198 23.4176 79.6925 23.5429 79.5953L25.3571 78.1882C25.4681 78.1021 25.5547 77.9857 25.6076 77.8516C25.6604 77.7175 25.6776 77.5708 25.6571 77.4272C25.6367 77.2836 25.5794 77.1486 25.4915 77.0367C25.4036 76.9249 25.2884 76.8403 25.1583 76.7922L15.4154 73.1937C15.306 73.1533 15.1893 73.1398 15.0742 73.1543C14.9591 73.1688 14.8486 73.2109 14.7514 73.2774C14.6542 73.3438 14.5727 73.4329 14.5133 73.5377C14.4539 73.6425 14.418 73.7602 14.4086 73.8818L12.6122 96.9937C12.5924 97.2415 12.488 97.4734 12.3183 97.6464C12.1486 97.8194 11.9251 97.9219 11.6892 97.9349L8.90975 98.0812C8.89282 98.0821 8.87605 98.0826 8.85929 98.0826C8.62338 98.0835 8.39526 97.9938 8.21773 97.8303C8.0402 97.6667 7.92545 97.4406 7.89504 97.1944Z" fill="#2F2E41"/>
<path d="M12.2878 38.9437C15.1058 38.9437 17.3902 36.539 17.3902 33.5727C17.3902 30.6064 15.1058 28.2017 12.2878 28.2017C9.46984 28.2017 7.18542 30.6064 7.18542 33.5727C7.18542 36.539 9.46984 38.9437 12.2878 38.9437Z" fill="white"/>
<path d="M7.51547 57.9941L3.75964 43.5689L3.82396 43.5232C3.90462 43.466 12 37.839 21.4781 42.3736L21.6499 42.4774L19.4244 57.4498C19.3759 57.7915 19.2156 58.1047 18.9712 58.3353C18.7268 58.5659 18.4136 58.6995 18.0856 58.713L8.92771 59.0838C8.90925 59.0845 8.89085 59.085 8.87255 59.085C8.56383 59.0857 8.2635 58.9792 8.01814 58.782C7.77278 58.5848 7.59609 58.3078 7.51547 57.9941Z" fill="#CCCCCC"/>
<path d="M3.61675 52.9599L0.488706 49.1734C0.338046 48.9915 0.25322 48.7594 0.249175 48.5181C0.24513 48.2768 0.322129 48.0417 0.466599 47.8543L3.73661 43.6021L6.24686 44.3227L7.57771 49.226L5.15113 52.8751C5.06649 53.0031 4.95508 53.1091 4.82547 53.1847C4.69586 53.2603 4.5515 53.3037 4.40349 53.3114C4.38598 53.3123 4.36859 53.3127 4.35118 53.3127C4.21186 53.313 4.07412 53.2816 3.94737 53.2208C3.82062 53.1599 3.70784 53.0709 3.61675 52.9599Z" fill="#CCCCCC"/>
<path d="M20.9145 52.1711C20.7664 52.1634 20.6221 52.1201 20.4925 52.0444C20.3628 51.9688 20.2514 51.8629 20.1668 51.7348L17.7402 48.0857L18.9074 42.9243L21.2187 42.2607L21.6499 42.4774L24.8513 46.714C24.9958 46.9014 25.0728 47.1365 25.0688 47.3778C25.0647 47.6191 24.9799 47.8512 24.8292 48.0331L21.7012 51.8197C21.6101 51.9306 21.4973 52.0196 21.3706 52.0805C21.2438 52.1414 21.1061 52.1727 20.9668 52.1725C20.9494 52.1724 20.9319 52.172 20.9145 52.1711Z" fill="#CCCCCC"/>
<path d="M129.627 50.4804C129.629 50.5348 129.611 50.588 129.577 50.6291C129.541 50.6732 129.49 50.7005 129.435 50.705C129.38 50.7095 129.326 50.6908 129.284 50.6532L128.588 50.0212L116.755 39.2905L83.5662 9.18907C83.3768 9.01847 83.1357 8.92489 82.8865 8.92529C82.6372 8.92569 82.3964 9.02004 82.2076 9.19126L37.5136 50.0649L37.1106 50.4323C37.0951 50.4467 37.0776 50.4585 37.0587 50.4673C37.0254 50.4828 36.9888 50.4888 36.9527 50.4848C36.9008 50.479 36.8527 50.4533 36.8176 50.4126C36.7996 50.3911 36.7858 50.366 36.7769 50.3389C36.7681 50.3117 36.7644 50.283 36.7662 50.2544C36.7679 50.2257 36.775 50.1977 36.787 50.172C36.7991 50.1462 36.8158 50.1232 36.8363 50.1043L36.8924 50.0518L81.9354 8.86105C82.2 8.62175 82.5372 8.48982 82.8861 8.48902C83.2349 8.48822 83.5726 8.6186 83.8382 8.85668L117.038 38.9669L129.554 50.3208C129.576 50.3407 129.594 50.3652 129.606 50.3926C129.619 50.4201 129.626 50.45 129.627 50.4804Z" fill="#3F3D56"/>
<path d="M104.393 56.9379L103.846 55.3547L101.964 49.8877L97.9087 38.1161L93.3758 24.9581L85.2011 1.22461C85.0406 0.761791 84.7124 0.384789 84.2883 0.176165C83.8643 -0.0324586 83.379 -0.0557008 82.9387 0.111528L35.6751 18.1505C35.2353 18.3193 34.877 18.6648 34.6788 19.1112C34.4806 19.5576 34.4586 20.0685 34.6177 20.532L46.2077 54.1782L46.405 54.7533L58.5705 60.5571L61.9899 62.1885L62.5446 62.4531L77.0223 69.3612L77.5832 69.1469L87.0791 65.5234L101.403 60.0563L103.333 59.3194C103.773 59.1508 104.132 58.8054 104.33 58.3591C104.529 57.9127 104.551 57.4017 104.393 56.9379Z" fill="#E6E6E6"/>
<path d="M84.5736 28.9119C84.3378 28.2308 83.8551 27.6759 83.2312 27.3688C82.6074 27.0618 81.8933 27.0277 81.2456 27.274L62.5445 34.414L53.5139 37.8604C53.1931 37.9824 52.8982 38.1699 52.6462 38.412C52.3942 38.6541 52.19 38.9461 52.0452 39.2714C51.9005 39.5966 51.8181 39.9487 51.8027 40.3075C51.7873 40.6663 51.8392 41.0247 51.9555 41.3624C52.0718 41.7 52.2502 42.0102 52.4804 42.2753C52.7107 42.5403 52.9883 42.755 53.2974 42.907C53.6065 43.059 53.9411 43.1454 54.2819 43.1613C54.6228 43.1771 54.9633 43.1221 55.2839 42.9994L62.5445 40.2287L83.0177 32.4152C83.6647 32.167 84.1919 31.6589 84.4836 31.0021C84.7752 30.3454 84.8076 29.5938 84.5736 28.9119Z" fill="white"/>
<path d="M87.8664 38.4727C87.6306 37.7916 87.1479 37.2366 86.524 36.9296C85.9002 36.6226 85.1861 36.5885 84.5384 36.8348L81.3703 38.0441L62.5445 45.23L56.8068 47.419C56.1597 47.6665 55.6325 48.1743 55.3409 48.8309C55.0494 49.4874 55.0174 50.2389 55.252 50.9203C55.4865 51.6016 55.9685 52.1571 56.5919 52.4646C57.2153 52.772 57.9292 52.8064 58.5767 52.5601L62.5445 51.0447L86.3105 41.9738C86.3644 41.9541 86.4164 41.9301 86.4683 41.906C87.0717 41.6273 87.5519 41.1175 87.8115 40.48C88.0711 39.8425 88.0907 39.1249 87.8664 38.4727Z" fill="white"/>
<path d="M91.1944 48.1338C90.9592 47.4528 90.4768 46.8979 89.8533 46.5908C89.2297 46.2837 88.5159 46.2496 87.8685 46.4959L78.9833 49.8876L72.1049 52.514L62.5445 56.1616L60.1348 57.0822C59.5779 57.2958 59.1069 57.7031 58.7997 58.2367C58.4926 58.7704 58.3677 59.3984 58.4458 60.0169C58.4696 60.201 58.5113 60.382 58.5704 60.5571L61.9899 62.1884L62.5445 61.9763H62.5487L79.8974 55.3547L89.6384 51.6371C90.2858 51.3894 90.8134 50.8813 91.1052 50.2244C91.397 49.5676 91.4291 48.8156 91.1944 48.1338H91.1944Z" fill="white"/>
<path d="M71.7227 19.513C71.4869 18.8319 71.0042 18.2769 70.3803 17.9699C69.7565 17.6628 69.0424 17.6288 68.3947 17.8751L57.6543 21.9732C57.0072 22.2207 56.48 22.7285 56.1885 23.3851C55.8969 24.0416 55.8649 24.7931 56.0995 25.4745C56.3341 26.1558 56.816 26.7113 57.4395 27.0188C58.0629 27.3263 58.7768 27.3606 59.4243 27.1143L62.823 25.8176L65.0728 24.9582L70.1668 23.0141C70.8137 22.7664 71.3409 22.2586 71.6326 21.6023C71.9243 20.9459 71.9567 20.1945 71.7227 19.513Z" fill="white"/>
<path d="M114.584 24.958H64.3104C64.0139 24.9583 63.7222 25.0372 63.4622 25.1874C63.2023 25.3376 62.9825 25.5543 62.823 25.8174C62.6407 26.1154 62.544 26.4624 62.5446 26.8168V62.453L77.0223 69.3612L79.0623 70.3343L82.2843 71.8716C82.473 71.9614 82.6777 72.0078 82.8847 72.0078C83.0918 72.0078 83.2965 71.9614 83.4852 71.8716L86.7072 70.3343L96.7911 65.5233L106.189 61.0382L116.35 56.1922V26.8168C116.35 26.3239 116.164 25.8513 115.833 25.5028C115.501 25.1543 115.053 24.9583 114.584 24.958Z" fill="#2F9FF8"/>
<path d="M104.197 49.8877H74.6974C74.0267 49.8881 73.3821 50.1618 72.8988 50.6514C72.4155 51.141 72.1309 51.8085 72.1048 52.514C72.1013 52.5496 72.0999 52.5854 72.1006 52.6212C72.1016 53.3459 72.3755 54.0405 72.8623 54.553C73.3491 55.0654 74.009 55.3537 74.6974 55.3547H104.197C104.886 55.3547 105.546 55.0667 106.033 54.5541C106.52 54.0415 106.794 53.3462 106.794 52.6212C106.794 51.8962 106.52 51.201 106.033 50.6883C105.546 50.1757 104.886 49.8877 104.197 49.8877Z" fill="white"/>
<path d="M105.878 60.7081C105.41 60.2864 104.813 60.0552 104.197 60.0564H74.6975C74.0088 60.0564 73.3483 60.3444 72.8613 60.857C72.3743 61.3697 72.1007 62.0649 72.1007 62.7899C72.1007 63.5149 72.3743 64.2102 72.8613 64.7228C73.3483 65.2354 74.0088 65.5234 74.6975 65.5234H96.791L106.189 61.0383C106.095 60.9191 105.99 60.8087 105.878 60.7081Z" fill="white"/>
<path d="M97.5992 38.2343C97.4164 37.7081 97.0844 37.2537 96.6482 36.9326C96.212 36.6115 95.6926 36.4392 95.1603 36.439H83.7344C83.2355 36.4394 82.7474 36.591 82.3282 36.8757C81.909 37.1603 81.5764 37.5659 81.3703 38.0441C81.2164 38.3982 81.137 38.7831 81.1376 39.1725C81.1385 39.8971 81.4124 40.5918 81.8992 41.1042C82.386 41.6166 83.046 41.905 83.7344 41.906H95.1603C95.578 41.906 95.9896 41.8 96.3601 41.5968C96.7306 41.3937 97.0491 41.0994 97.2884 40.739C97.5278 40.3786 97.6811 39.9628 97.7352 39.5267C97.7893 39.0907 97.7426 38.6473 97.5992 38.2343Z" fill="white"/>
<path d="M95.7836 65.5235L85.6997 70.3345L83.3128 71.4739C83.1782 71.5376 83.0324 71.5706 82.8848 71.5706C82.7373 71.5706 82.5914 71.5376 82.4569 71.4739L80.0699 70.3345H79.0624L82.2844 71.8719C82.4731 71.9616 82.6778 72.008 82.8848 72.008C83.0919 72.008 83.2965 71.9616 83.4852 71.8719L86.7073 70.3345L96.7911 65.5235H95.7836ZM95.7836 65.5235L85.6997 70.3345L83.3128 71.4739C83.1782 71.5376 83.0324 71.5706 82.8848 71.5706C82.7373 71.5706 82.5914 71.5376 82.4569 71.4739L80.0699 70.3345H79.0624L82.2844 71.8719C82.4731 71.9616 82.6778 72.008 82.8848 72.008C83.0919 72.008 83.2965 71.9616 83.4852 71.8719L86.7073 70.3345L96.7911 65.5235H95.7836ZM95.7836 65.5235L85.6997 70.3345L83.3128 71.4739C83.1782 71.5376 83.0324 71.5706 82.8848 71.5706C82.7373 71.5706 82.5914 71.5376 82.4569 71.4739L80.0699 70.3345H79.0624L82.2844 71.8719C82.4731 71.9616 82.6778 72.008 82.8848 72.008C83.0919 72.008 83.2965 71.9616 83.4852 71.8719L86.7073 70.3345L96.7911 65.5235H95.7836ZM129.627 50.4805C129.55 50.4002 129.466 50.3284 129.376 50.2662C129.172 50.1269 128.937 50.0441 128.695 50.0253C128.452 50.0066 128.209 50.0526 127.988 50.159L105.878 60.7082L95.7836 65.5235L85.6997 70.3345L83.3128 71.4739C83.1782 71.5376 83.0324 71.5706 82.8848 71.5706C82.7373 71.5706 82.5914 71.5376 82.4569 71.4739L80.0699 70.3345L77.5832 69.1471L62.5488 61.9765L62.5446 61.9744L58.4458 60.0172L46.2077 54.1784L37.7817 50.159C37.6959 50.1173 37.606 50.0857 37.5137 50.065C37.3102 50.0115 37.0978 50.007 36.8925 50.0519C36.5639 50.1227 36.2686 50.3105 36.0563 50.5838C35.844 50.8571 35.7277 51.199 35.7271 51.552V106.469C35.7275 106.875 35.8808 107.264 36.1534 107.551C36.4261 107.838 36.7957 108 37.1813 108H128.588C128.974 108 129.344 107.838 129.616 107.551C129.889 107.264 130.042 106.875 130.043 106.469V51.552C130.043 51.1512 129.894 50.7663 129.627 50.4805ZM129.627 106.469C129.627 106.759 129.518 107.037 129.323 107.242C129.128 107.447 128.864 107.563 128.588 107.563H37.1812C36.9058 107.563 36.6417 107.447 36.4469 107.242C36.2521 107.037 36.1426 106.759 36.1425 106.469V51.552C36.1426 51.3693 36.1862 51.1895 36.2693 51.029C36.3524 50.8686 36.4724 50.7326 36.6183 50.6336C36.7209 50.5644 36.834 50.5141 36.9527 50.4849C36.9877 50.4769 37.0231 50.4711 37.0587 50.4674C37.0993 50.4612 37.1402 50.4583 37.1812 50.4586C37.3289 50.4588 37.4749 50.4924 37.6092 50.557L46.405 54.7535L58.5705 60.5573L61.99 62.1887L62.5446 62.4533L77.0223 69.3614L79.0624 70.3345L82.2844 71.8719C82.4731 71.9616 82.6778 72.008 82.8848 72.008C83.0919 72.008 83.2965 71.9616 83.4852 71.8719L86.7073 70.3345L96.7911 65.5235L106.189 61.0384L128.16 50.557C128.318 50.4816 128.492 50.4491 128.665 50.4625C128.838 50.4759 129.005 50.5347 129.151 50.6336C129.168 50.6439 129.184 50.6556 129.199 50.6685C129.216 50.6798 129.231 50.693 129.245 50.7079C129.364 50.8097 129.461 50.9383 129.527 51.0844C129.593 51.2304 129.627 51.3902 129.627 51.552L129.627 106.469ZM95.7836 65.5235L85.6997 70.3345L83.3128 71.4739C83.1782 71.5376 83.0324 71.5706 82.8848 71.5706C82.7373 71.5706 82.5914 71.5376 82.4569 71.4739L80.0699 70.3345H79.0624L82.2844 71.8719C82.4731 71.9616 82.6778 72.008 82.8848 72.008C83.0919 72.008 83.2965 71.9616 83.4852 71.8719L86.7073 70.3345L96.7911 65.5235H95.7836ZM95.7836 65.5235L85.6997 70.3345L83.3128 71.4739C83.1782 71.5376 83.0324 71.5706 82.8848 71.5706C82.7373 71.5706 82.5914 71.5376 82.4569 71.4739L80.0699 70.3345H79.0624L82.2844 71.8719C82.4731 71.9616 82.6778 72.008 82.8848 72.008C83.0919 72.008 83.2965 71.9616 83.4852 71.8719L86.7073 70.3345L96.7911 65.5235H95.7836ZM61.99 62.1887L62.5446 62.4533V61.9765L61.99 62.1887ZM95.7836 65.5235L85.6997 70.3345L83.3128 71.4739C83.1782 71.5376 83.0324 71.5706 82.8848 71.5706C82.7373 71.5706 82.5914 71.5376 82.4569 71.4739L80.0699 70.3345H79.0624L82.2844 71.8719C82.4731 71.9616 82.6778 72.008 82.8848 72.008C83.0919 72.008 83.2965 71.9616 83.4852 71.8719L86.7073 70.3345L96.7911 65.5235H95.7836Z" fill="#3F3D56"/>
<path d="M10.3478 37.5006C9.96457 37.2959 9.6459 36.9787 9.43038 36.5872C9.21486 36.1958 9.11173 35.747 9.13349 35.2952C9.15525 34.8434 9.30095 34.4079 9.55296 34.0414C9.80497 33.675 10.1525 33.3932 10.5534 33.2303C12.0931 32.6049 13.8192 33.8813 15.4332 33.5184C17.0418 33.1567 17.9724 31.1323 17.5884 29.4486C17.2044 27.765 15.8069 26.4968 14.2659 25.8911C13.2595 25.4966 12.1816 25.3453 11.1121 25.4485C10.0426 25.5517 9.0089 25.9067 8.08738 26.4873C7.17536 27.0849 6.41579 27.9079 5.87472 28.8848C5.33366 29.8618 5.02745 30.963 4.98273 32.0929C4.96178 33.2237 5.22425 34.3405 5.74372 35.3306C6.26319 36.3207 7.02131 37.1493 7.94175 37.7328C8.35195 37.9817 8.82942 38.1816 9.29076 38.0695C9.66951 37.94 10.0263 37.748 10.3478 37.5006Z" fill="#2F2E41"/>
</svg>
